<?xml version="1.0" standalone="no"?>
<!DOCTYPE svg PUBLIC "-//W3C//DTD SVG 20010904//EN"
 "http://www.w3.org/TR/2001/REC-SVG-20010904/DTD/svg10.dtd">
<svg version="1.0" xmlns="http://www.w3.org/2000/svg"
 width="680.000000pt" height="680.000000pt" viewBox="0 0 680.000000 680.000000"
 preserveAspectRatio="xMidYMid meet">
<metadata>
Created by potrace 1.14, written by Peter Selinger 2001-2017
</metadata>
<g transform="translate(0.000000,680.000000) scale(0.100000,-0.100000)"
fill="#000000" stroke="none">
<path d="M3002 5700 c-76 -18 -147 -128 -222 -347 -52 -150 -86 -288 -95 -389
-6 -66 -13 -85 -36 -116 -41 -52 -86 -152 -104 -233 -9 -39 -19 -82 -23 -97
l-7 -26 -80 48 c-90 55 -118 63 -123 38 -2 -12 10 -24 40 -39 24 -12 71 -40
106 -62 l62 -41 0 -71 c0 -77 27 -203 60 -279 11 -27 17 -52 13 -56 -4 -4 -39
-18 -78 -30 -92 -30 -171 -65 -180 -80 -19 -31 20 -25 143 21 72 27 135 49
140 49 4 0 25 -28 47 -63 82 -130 218 -234 393 -303 l52 -20 -22 -21 c-71 -64
-272 -154 -433 -194 -159 -39 -464 -34 -725 11 -128 22 -175 19 -236 -16 -62
-35 -89 -102 -88 -219 1 -101 20 -157 74 -218 37 -42 139 -109 209 -137 136
-53 501 -89 709 -70 137 12 275 34 352 55 30 8 55 13 56 12 8 -11 -36 -370
-73 -597 -50 -306 -63 -468 -43 -560 14 -63 75 -165 128 -212 87 -76 235 -115
473 -125 l136 -6 9 -31 c12 -42 48 -57 163 -69 126 -13 219 0 288 41 51 31 56
31 240 41 352 17 537 93 661 270 38 55 51 84 62 139 l13 69 61 6 c152 15 331
93 421 182 64 64 146 183 240 350 102 182 208 302 298 340 20 8 80 19 134 25
154 16 190 27 234 71 34 34 39 45 39 84 0 59 -40 107 -107 126 -64 19 -231 16
-312 -6 -174 -45 -278 -139 -426 -385 -137 -226 -226 -337 -324 -400 -55 -35
-146 -60 -216 -60 l-50 0 -28 88 c-16 48 -51 139 -77 203 -71 169 -128 360
-235 792 -52 210 -95 385 -95 389 0 4 22 18 50 32 41 21 112 67 186 120 17 13
38 -14 106 -131 35 -61 59 -93 71 -93 9 0 17 5 17 10 0 18 -40 92 -96 177
l-55 82 39 58 c44 66 74 138 98 235 l16 68 48 14 c26 8 83 20 126 27 75 12 99
23 88 41 -9 14 -76 9 -162 -12 -46 -11 -84 -20 -85 -20 -1 0 -2 69 -2 152 0
93 -5 173 -13 203 -13 49 -12 53 22 127 67 147 116 361 116 508 0 89 -12 134
-49 174 -39 43 -84 58 -175 57 -129 0 -282 -49 -494 -155 l-87 -44 -49 25
c-137 70 -434 109 -626 84 -36 -5 -87 -12 -115 -15 l-50 -7 -52 78 c-152 229
-355 367 -491 333z m153 -68 c33 -16 88 -52 122 -80 59 -49 165 -176 211 -253
36 -60 41 -62 126 -45 48 10 128 16 223 16 208 0 373 -29 485 -86 26 -13 55
-24 65 -24 10 0 72 27 137 60 65 33 169 77 230 97 96 32 124 37 208 37 83 1
100 -2 125 -20 47 -35 58 -69 57 -174 -2 -148 -38 -309 -107 -468 -33 -79 -38
-100 -33 -135 16 -97 23 -207 19 -277 -7 -121 -3 -115 -93 -145 -63 -21 -80
-31 -80 -46 0 -25 21 -24 89 1 29 12 56 19 59 16 16 -16 -62 -221 -103 -271
l-25 -30 -46 48 c-36 40 -48 46 -59 37 -18 -15 -9 -33 39 -79 34 -33 35 -35
18 -54 -66 -74 -275 -174 -432 -207 -227 -47 -669 -36 -975 25 -376 75 -568
171 -692 344 -29 40 -53 77 -53 81 0 4 18 14 40 23 30 12 38 19 34 32 -5 12
-13 15 -33 9 -70 -19 -73 -17 -108 87 -20 57 -36 128 -40 174 l-6 79 47 -35
c76 -55 74 -55 88 -40 11 10 5 19 -32 49 -24 21 -58 49 -74 63 l-30 26 18 89
c21 110 66 217 110 267 29 33 34 47 41 110 17 175 84 413 165 582 70 148 137
177 265 117z m96 -2062 c281 -72 489 -94 819 -87 249 5 367 20 466 62 18 7 35
11 38 7 2 -4 45 -173 96 -377 102 -410 172 -646 230 -776 21 -47 57 -141 81
-210 38 -113 43 -135 47 -247 13 -329 -101 -486 -418 -575 -91 -25 -128 -30
-270 -34 -145 -5 -163 -4 -152 9 37 45 89 283 117 531 13 109 14 152 6 160
-22 22 -33 -11 -46 -139 -36 -336 -84 -518 -156 -578 -64 -55 -103 -66 -233
-66 -65 0 -136 5 -157 12 -48 14 -49 30 -13 143 44 138 108 635 85 658 -20 20
-30 -6 -41 -118 -21 -205 -60 -456 -83 -523 l-22 -67 -125 1 c-143 2 -292 24
-377 55 -72 28 -148 101 -188 183 -44 90 -45 189 -6 431 17 105 39 249 50 320
25 159 64 591 56 605 -16 25 -33 7 -40 -40 -4 -27 -10 -52 -14 -54 -18 -11
-169 -46 -244 -56 -277 -38 -624 -23 -812 37 -64 20 -166 76 -211 115 -73 64
-105 186 -78 292 34 131 86 146 349 101 145 -24 481 -31 591 -11 196 34 462
150 538 235 23 26 20 26 117 1z m3147 -674 c45 -23 59 -56 42 -97 -19 -44 -78
-68 -198 -80 -132 -13 -191 -32 -251 -79 -75 -60 -170 -177 -226 -280 -80
-147 -199 -322 -258 -377 -29 -28 -80 -64 -113 -81 -82 -41 -216 -82 -270 -82
-43 0 -44 1 -44 33 0 17 -3 69 -7 115 l-6 82 29 0 c52 0 168 29 221 56 93 45
263 241 343 394 7 14 41 68 76 120 148 226 286 304 524 297 75 -3 114 -8 138
-21z"/>
<path d="M3222 4603 c-5 -10 -13 -54 -16 -98 -4 -44 -9 -92 -12 -108 -4 -19
-1 -29 11 -33 9 -4 19 -4 22 0 9 8 33 237 27 248 -8 13 -23 9 -32 -9z"/>
<path d="M4273 4568 c-14 -17 -26 -239 -14 -257 5 -8 16 -11 25 -8 16 6 18 28
21 234 0 38 -15 53 -32 31z"/>
<path d="M3361 4151 c-18 -32 7 -91 49 -115 49 -29 190 -30 237 -2 30 18 33
19 50 3 10 -9 45 -28 77 -43 111 -51 235 -33 276 39 12 21 12 29 2 39 -10 10
-17 7 -35 -14 -31 -37 -58 -48 -115 -48 -64 0 -125 22 -181 65 -41 33 -46 34
-65 20 -63 -47 -136 -57 -206 -29 -39 16 -44 23 -52 78 -4 27 -25 31 -37 7z"/>
<path d="M1584 3809 c-37 -11 -61 -36 -48 -49 6 -6 29 -3 59 6 37 11 72 14
133 10 75 -6 83 -5 80 11 -2 9 -14 20 -28 24 -36 10 -159 9 -196 -2z"/>
<path d="M1619 3555 c-108 -35 -180 -88 -154 -114 7 -7 25 0 54 19 79 53 146
73 254 75 54 1 101 6 105 9 4 4 -2 14 -12 22 -32 23 -158 17 -247 -11z"/>
<path d="M1059 3010 c-35 -18 -71 -55 -95 -96 -10 -17 -12 -17 -45 3 -48 29
-90 36 -141 23 -119 -32 -178 -149 -129 -255 10 -22 32 -53 48 -68 l30 -28
-32 -32 c-55 -55 -63 -125 -23 -202 44 -83 129 -116 212 -81 l33 14 6 -182 c4
-117 12 -212 24 -268 l19 -87 -30 20 c-78 52 -140 73 -226 77 -47 2 -104 -1
-127 -7 -51 -14 -103 -56 -103 -83 0 -10 25 -44 55 -74 65 -65 168 -117 268
-134 84 -15 142 -7 210 29 29 15 73 31 97 35 143 23 318 188 350 331 13 59 -3
70 -112 70 -99 0 -137 -13 -215 -72 -40 -31 -80 -110 -91 -183 l-9 -55 -12 30
c-38 91 -61 256 -61 433 0 61 2 112 4 112 2 0 18 -13 36 -30 26 -25 67 -41
115 -45 25 -2 82 19 103 38 35 32 58 117 45 171 l-10 44 56 6 c109 12 165 71
158 168 -6 97 -76 159 -164 145 -30 -5 -34 -4 -27 11 4 9 10 42 12 72 3 45 -1
61 -20 90 -52 77 -133 100 -209 60z m143 -47 c27 -24 48 -67 48 -96 0 -13 -14
-52 -32 -86 -24 -46 -29 -64 -20 -73 8 -8 15 -8 26 2 9 7 45 15 80 17 61 5 66
4 90 -22 48 -52 45 -130 -8 -169 -22 -17 -42 -21 -101 -21 -90 0 -101 -8 -80
-58 31 -74 10 -178 -40 -197 -71 -27 -136 3 -176 81 -23 47 -36 48 -70 10 -14
-16 -45 -35 -68 -42 -39 -12 -47 -11 -79 7 -20 10 -47 37 -59 59 -41 73 -26
128 52 184 51 36 53 51 11 62 -40 11 -73 45 -92 96 -16 40 -16 46 0 88 22 56
64 87 126 93 54 5 101 -15 126 -53 24 -37 50 -32 57 11 17 103 143 167 209
107z m161 -1000 c-13 -2 -33 -2 -45 0 -13 2 -3 4 22 4 25 0 35 -2 23 -4z
m-108 -23 c-3 -5 -12 -10 -18 -10 -7 0 -6 4 3 10 19 12 23 12 15 0z m110 0
c-3 -5 -14 -10 -23 -9 -14 0 -13 2 3 9 27 11 27 11 20 0z m25 -21 c0 8 2 12 5
9 3 -3 2 -13 -1 -22 -5 -14 -9 -15 -15 -4 -5 7 -9 18 -9 23 0 6 5 3 10 -5 8
-12 10 -12 10 -1z m-200 -55 c-6 -6 -6 -15 -2 -20 4 -4 -1 -2 -10 5 -24 18
-23 30 1 28 14 -1 17 -5 11 -13z m165 -34 c-3 -5 -12 -10 -18 -10 -7 0 -6 4 3
10 19 12 23 12 15 0z m-62 -35 c-3 -9 -8 -14 -10 -11 -3 3 -2 9 2 15 9 16 15
13 8 -4z m37 11 c0 -2 -8 -10 -17 -17 -16 -13 -17 -12 -4 4 13 16 21 21 21 13z
m-216 -25 c3 -5 -1 -11 -9 -14 -9 -4 -12 -1 -8 9 6 16 10 17 17 5z m156 -35
c-7 -7 -13 -7 -20 0 -6 6 -3 10 10 10 13 0 16 -4 10 -10z m-656 -24 c2 -4 -4
-8 -14 -8 -10 0 -16 4 -14 8 3 4 9 8 14 8 5 0 11 -4 14 -8z m261 -12 c3 -6 -1
-7 -9 -4 -18 7 -21 14 -7 14 6 0 13 -4 16 -10z m48 -13 c-5 -8 -8 -7 -11 1 -2
7 -9 9 -14 6 -7 -4 -8 -2 -4 4 4 6 13 9 21 6 8 -4 12 -11 8 -17z m-76 -3 c-3
-3 -12 -4 -19 -1 -8 3 -5 6 6 6 11 1 17 -2 13 -5z m313 -4 c0 -5 -2 -10 -4
-10 -3 0 -8 5 -11 10 -3 6 -1 10 4 10 6 0 11 -4 11 -10z m-437 -26 c7 1 8 1 4
-2 -4 -2 0 -11 10 -19 16 -14 16 -14 -6 -1 -14 8 -26 20 -27 27 -1 6 0 7 2 2
3 -6 11 -9 17 -7z m-58 -4 c3 -6 -1 -7 -9 -4 -18 7 -21 14 -7 14 6 0 13 -4 16
-10z m40 -28 c-3 -3 -11 0 -18 7 -9 10 -8 11 6 5 10 -3 15 -9 12 -12z m285
-12 c-8 -5 -19 -10 -25 -10 -5 0 -3 5 5 10 8 5 20 10 25 10 6 0 3 -5 -5 -10z"/>
<path d="M940 2708 c-58 -30 -82 -65 -88 -129 -8 -85 45 -154 123 -159 81 -5
97 -1 141 43 23 24 46 55 49 70 16 64 -24 149 -85 179 -47 24 -87 23 -140 -4z"/>
</g>
</svg>
